<svg t="1647507917949" class="icon" viewBox="0 0 1024 1024" version="1.1" xmlns="http://www.w3.org/2000/svg" p-id="3261" width="180" height="180"><path d="M485.76 229.76a252.16 252.16 0 0 1 180.48 74.88 256 256 0 0 1 0 361.6 256 256 0 0 1-361.6 0 256 256 0 0 1 0-361.6 256 256 0 0 1 181.12-74.88m0-128a384 384 0 1 0 271.36 112 384 384 0 0 0-271.36-112z" fill="#666666" p-id="3262"></path><path d="M711.68 621.44l-90.24 90.24 271.36 271.36 90.24-90.24-271.36-271.36z" fill="#666666" p-id="3263"></path></svg>