<svg t="1647484482067" class="icon" viewBox="0 0 1024 1024" version="1.1" xmlns="http://www.w3.org/2000/svg" p-id="5532" width="180" height="180"><path d="M516.251837 958.322162c-246.49809 0-446.321138-199.826118-446.321138-446.321138S269.753747 65.677838 516.251837 65.677838c246.496044 0 446.321138 199.828165 446.321138 446.323185S762.747881 958.322162 516.251837 958.322162zM516.251837 261.625626c-30.060643 0-54.429657 24.369014-54.429657 54.42761 0 30.062689 24.369014 54.431703 54.429657 54.431703 30.060643 0 54.429657-24.369014 54.429657-54.431703C570.681494 285.99464 546.31248 261.625626 516.251837 261.625626zM570.681494 479.343229c0-24.048719-19.497053-43.543725-43.543725-43.543725l-21.771863 0c-24.048719 0-43.543725 19.493983-43.543725 43.543725l0 261.261329c0 24.046672 19.493983 43.543725 43.543725 43.543725l21.771863 0c24.046672 0 43.543725-19.497053 43.543725-43.543725L570.681494 479.343229z" p-id="5533"></path></svg>