<svg t="1647484545016" class="icon" viewBox="0 0 1024 1024" version="1.1" xmlns="http://www.w3.org/2000/svg" p-id="5973" width="180" height="180"><path d="M341.333333 554.666667h341.333334a85.426667 85.426667 0 0 1-85.333334 85.333333H426.666667a85.426667 85.426667 0 0 1-85.333334-85.333333zM42.666667 341.333333v170.666667h938.666666V341.333333z m554.666666 341.333334H426.666667c-70.58 0-128-57.42-128-128H85.333333v373.333333a53.393333 53.393333 0 0 0 53.333334 53.333333h746.666666a53.393333 53.393333 0 0 0 53.333334-53.333333V554.666667h-213.333334c0 70.58-57.42 128-128 128z m374.086667-384l-145.333333-218a85.173333 85.173333 0 0 0-71.006667-38H268.92a85.153333 85.153333 0 0 0-71 38l-145.333333 218z" fill="#5C5C66" p-id="5974"></path></svg>